<svg width="325" height="325" viewBox="0 0 325 325" fill="none" xmlns="http://www.w3.org/2000/svg">
<path d="M325 248.559H0V248.721H325V248.559Z" fill="#EBEBEB"/>
<path d="M292.436 259.021H270.906V259.183H292.436V259.021Z" fill="#EBEBEB"/>
<path d="M215.293 260.785H209.643V260.948H215.293V260.785Z" fill="#EBEBEB"/>
<path d="M270.256 252.985H257.781V253.148H270.256V252.985Z" fill="#EBEBEB"/>
<path d="M62.1736 254.077H34.0981V254.24H62.1736V254.077Z" fill="#EBEBEB"/>
<path d="M72.0779 254.077H67.9614V254.24H72.0779V254.077Z" fill="#EBEBEB"/>
<path d="M146.345 256.822H85.4561V256.985H146.345V256.822Z" fill="#EBEBEB"/>
<path d="M154.059 219.57H28.5447C26.4991 219.57 24.8345 217.905 24.8345 215.86V39.429C24.8345 37.3834 26.4991 35.7188 28.5447 35.7188H154.059C156.104 35.7188 157.769 37.3834 157.769 39.429V215.86C157.769 217.905 156.104 219.57 154.059 219.57ZM28.5447 35.8819C26.5882 35.8819 24.997 37.4731 24.997 39.4296V215.86C24.997 217.817 26.5882 219.408 28.5447 219.408H154.059C156.015 219.408 157.606 217.817 157.606 215.86V39.429C157.606 37.4731 156.015 35.8812 154.059 35.8812L28.5447 35.8819Z" fill="#EBEBEB"/>
<path d="M294.651 219.57H169.138C167.092 219.57 165.428 217.905 165.428 215.86V39.429C165.428 37.3834 167.093 35.7188 169.138 35.7188H294.651C296.698 35.7188 298.362 37.3834 298.362 39.429V215.86C298.362 217.905 296.698 219.57 294.651 219.57ZM169.138 35.8819C167.182 35.8819 165.591 37.4731 165.591 39.4296V215.86C165.591 217.817 167.182 219.408 169.138 219.408H294.651C296.608 219.408 298.199 217.817 298.199 215.86V39.429C298.199 37.4731 296.608 35.8812 294.651 35.8812L169.138 35.8819Z" fill="#EBEBEB"/>
<path d="M188.299 113.138L277.856 113.138V54.4901L188.299 54.4901V113.138Z" fill="#E6E6E6"/>
<path d="M185.567 113.138L276.58 113.138V54.4901L185.567 54.4901V113.138Z" fill="#F0F0F0"/>
<path d="M188.299 124.647L277.856 124.647V113.137L188.299 113.137V124.647Z" fill="#E6E6E6"/>
<path d="M181.015 124.647L272.028 124.647V113.137L181.015 113.137V124.647Z" fill="#F0F0F0"/>
<path d="M272.754 109.312V58.3159L189.393 58.3159V109.312L272.754 109.312Z" fill="#FAFAFA"/>
<path d="M253.956 109.313L243.309 58.3169H226.695L237.342 109.313H253.956Z" fill="white"/>
<path d="M270.983 105.505C271.134 105.505 271.257 105.383 271.257 105.232V60.8057C271.257 60.6549 271.135 60.5327 270.983 60.5327C270.832 60.5327 270.709 60.6549 270.709 60.8057V105.232C270.709 105.383 270.832 105.505 270.983 105.505Z" fill="#F0F0F0"/>
<path d="M233.773 109.313L223.126 58.3169H216.648L227.296 109.313H233.773Z" fill="white"/>
<path d="M189.878 109.312V58.3159H189.393V109.312H189.878Z" fill="#E6E6E6"/>
<path opacity="0.6" d="M184.662 64.0841H274.22L274.571 59.8032H185.014L184.662 64.0841Z" fill="#EBEBEB"/>
<path opacity="0.6" d="M184.662 71.1056H274.22L274.571 66.8247H185.014L184.662 71.1056Z" fill="#EBEBEB"/>
<path opacity="0.6" d="M184.662 78.1266H274.22L274.571 73.8457H185.014L184.662 78.1266Z" fill="#EBEBEB"/>
<path opacity="0.6" d="M184.662 85.1481H274.22L274.571 80.8672H185.014L184.662 85.1481Z" fill="#EBEBEB"/>
<path opacity="0.6" d="M184.662 92.1691H274.22L274.571 87.8882H185.014L184.662 92.1691Z" fill="#EBEBEB"/>
<path opacity="0.6" d="M184.662 99.1906H274.22L274.571 94.9097H185.014L184.662 99.1906Z" fill="#EBEBEB"/>
<path d="M264.997 205.907H246.219V209.61H264.997V205.907Z" fill="#E6E6E6"/>
<path d="M210.8 248.559H214.267V163.367H210.8V248.559Z" fill="#E6E6E6"/>
<path d="M198.793 209.61H246.219V205.907H198.793V209.61Z" fill="#F5F5F5"/>
<path d="M264.997 226.166H246.219V229.868H264.997V226.166Z" fill="#E6E6E6"/>
<path d="M198.793 229.868H246.219V226.166H198.793V229.868Z" fill="#F5F5F5"/>
<path d="M264.997 165.391H246.219V169.094H264.997V165.391Z" fill="#E6E6E6"/>
<path d="M198.793 169.093H246.219V165.391H198.793V169.093Z" fill="#F5F5F5"/>
<path d="M264.997 185.649H246.219V189.352H264.997V185.649Z" fill="#E6E6E6"/>
<path d="M198.793 189.351H246.219V185.649H198.793V189.351Z" fill="#F5F5F5"/>
<path d="M258.226 248.559H261.692V163.367H258.226V248.559Z" fill="#E6E6E6"/>
<path d="M242.752 248.559H246.219V163.367H242.752V248.559Z" fill="#F5F5F5"/>
<path d="M198.793 248.559H202.259V163.367H198.793V248.559Z" fill="#F5F5F5"/>
<path d="M42.4926 248.559H77.9683L77.9683 179.729H42.4926L42.4926 248.559Z" fill="#E6E6E6"/>
<path d="M51.9663 248.559H42.4932V239.058H61.8983L51.9663 248.559Z" fill="#FAFAFA"/>
<path d="M139.219 248.559H174.694V179.729H139.219V248.559Z" fill="#E6E6E6"/>
<path d="M42.4925 245.289H147.486V179.729H42.4925L42.4925 245.289Z" fill="#FAFAFA"/>
<path d="M138.014 248.559H147.487V239.058H128.081L138.014 248.559Z" fill="#FAFAFA"/>
<path d="M49.8417 220.565H140.138V204.159H49.8417V220.565Z" fill="#F0F0F0"/>
<path d="M49.8417 240.478H140.138V224.071H49.8417V240.478Z" fill="#F0F0F0"/>
<path d="M67.0047 205.913H122.975C124.617 205.913 125.949 204.581 125.949 202.938V202.738H64.0303V202.938C64.0303 204.581 65.3621 205.913 67.0047 205.913Z" fill="#FAFAFA"/>
<path d="M49.8417 200.652H140.138V184.246H49.8417V200.652Z" fill="#F0F0F0"/>
<path d="M67.0047 186H122.975C124.617 186 125.949 184.668 125.949 183.025V182.825H64.0303V183.025C64.0303 184.668 65.3621 186 67.0047 186Z" fill="#FAFAFA"/>
<path d="M67.0047 225.826H122.975C124.617 225.826 125.949 224.494 125.949 222.852V222.651H64.0303V222.852C64.0303 224.494 65.3621 225.826 67.0047 225.826Z" fill="#FAFAFA"/>
<path d="M48.1445 113.138L137.702 113.138V54.4901L48.1445 54.4901L48.1445 113.138Z" fill="#E6E6E6"/>
<path d="M45.4123 113.138L136.425 113.138V54.4901L45.4123 54.4901L45.4123 113.138Z" fill="#F0F0F0"/>
<path d="M48.1445 124.647L137.702 124.647V113.137L48.1445 113.137V124.647Z" fill="#E6E6E6"/>
<path d="M40.8596 124.647L131.873 124.647V113.137L40.8596 113.137V124.647Z" fill="#F0F0F0"/>
<path d="M132.6 109.313V58.3164L49.2378 58.3164L49.2378 109.313L132.6 109.313Z" fill="#FAFAFA"/>
<path d="M113.802 109.313L103.154 58.3169H86.5396L97.1872 109.313H113.802Z" fill="white"/>
<path d="M130.828 105.505C130.979 105.505 131.101 105.383 131.101 105.232V60.8057C131.101 60.6549 130.979 60.5327 130.828 60.5327C130.678 60.5327 130.555 60.6549 130.555 60.8057V105.232C130.555 105.383 130.678 105.505 130.828 105.505Z" fill="#F0F0F0"/>
<path d="M93.6181 109.313L82.9704 58.3169H76.4932L87.1408 109.313H93.6181Z" fill="white"/>
<path d="M49.7236 109.313L49.7236 58.3164H49.2381L49.2381 109.313H49.7236Z" fill="#E6E6E6"/>
<path opacity="0.6" d="M44.5068 64.0841H134.064L134.417 59.8032H44.8591L44.5068 64.0841Z" fill="#EBEBEB"/>
<path opacity="0.6" d="M44.5068 66.4993H134.064L134.417 62.2178H44.8591L44.5068 66.4993Z" fill="#EBEBEB"/>
<path opacity="0.6" d="M44.5068 68.9142H134.064L134.417 64.6333H44.8591L44.5068 68.9142Z" fill="#EBEBEB"/>
<path opacity="0.6" d="M44.5068 71.3299H134.064L134.417 67.0483H44.8591L44.5068 71.3299Z" fill="#EBEBEB"/>
<path opacity="0.6" d="M44.5068 73.7443H134.064L134.417 69.4634H44.8591L44.5068 73.7443Z" fill="#EBEBEB"/>
<path opacity="0.6" d="M44.5068 76.1593H134.064L134.417 71.8784H44.8591L44.5068 76.1593Z" fill="#EBEBEB"/>
<path d="M62.4089 177.626H65.5049V143.117H62.4089L62.4089 177.626Z" fill="#F5F5F5"/>
<path d="M62.8074 177.603H63.6816L63.6816 143.093H62.8074L62.8074 177.603Z" fill="#FAFAFA"/>
<path d="M64.0481 177.603H64.3906V143.093H64.0481V177.603Z" fill="#FAFAFA"/>
<path d="M52.4961 179.73H75.4177C75.4177 178.135 74.1248 176.842 72.5297 176.842H55.384C53.7889 176.842 52.4961 178.135 52.4961 179.73Z" fill="#F0F0F0"/>
<path d="M58.3929 164.54C58.883 164.54 59.2834 164.139 59.2834 163.649V141.023C59.2834 140.533 58.8824 140.132 58.3929 140.132C57.9028 140.132 57.5024 140.533 57.5024 141.023V163.649C57.5024 164.139 57.9028 164.54 58.3929 164.54Z" fill="#F0F0F0"/>
<path d="M50.0981 151.32H77.8155L74.6272 131.95H53.2864L50.0981 151.32Z" fill="#E0E0E0"/>
<path d="M162.5 277.915C232.103 277.915 288.528 274.62 288.528 270.555C288.528 266.49 232.103 263.195 162.5 263.195C92.8968 263.195 36.4722 266.49 36.4722 270.555C36.4722 274.62 92.8968 277.915 162.5 277.915Z" fill="#F5F5F5"/>
<path d="M67.6698 131.534L67.0215 131.581L67.8844 143.567L68.5327 143.52L67.6698 131.534Z" fill="#3A3A40"/>
<path d="M68.9901 149.705L68.3418 149.752L68.6668 154.261L69.3151 154.214L68.9901 149.705Z" fill="#3A3A40"/>
<path d="M219.512 204.854H80.3094C77.1608 204.854 74.3996 202.279 74.1727 199.13L67.3328 104.145C67.1059 100.997 69.4966 98.4209 72.6452 98.4209H211.848C214.997 98.4209 217.758 100.997 217.985 104.145L224.825 199.13C225.051 202.279 222.661 204.854 219.512 204.854Z" fill="#3A3A40"/>
<path d="M220.046 204.854H80.8431C77.6945 204.854 74.9333 202.279 74.7064 199.13L67.8665 104.145C67.6396 100.997 70.0303 98.4209 73.1789 98.4209H212.382C215.53 98.4209 218.291 100.997 218.518 104.145L225.358 199.13C225.584 202.279 223.194 204.854 220.046 204.854Z" fill="#3A3A40"/>
<path opacity="0.5" d="M220.046 204.854H80.8431C77.6945 204.854 74.9333 202.279 74.7064 199.13L67.8665 104.145C67.6396 100.997 70.0303 98.4209 73.1789 98.4209H212.382C215.53 98.4209 218.291 100.997 218.518 104.145L225.358 199.13C225.584 202.279 223.194 204.854 220.046 204.854Z" fill="white"/>
<path d="M212.588 101.284H73.3848C73.2275 101.284 73.0721 101.29 72.9187 101.303C69.3606 101.596 70.0873 107.008 73.6786 107.008H213.119C216.71 107.008 216.657 101.596 213.057 101.303C212.901 101.29 212.745 101.284 212.588 101.284Z" fill="#3A3A40"/>
<path d="M77.0105 104.146C77.0625 104.871 76.5178 105.458 75.7924 105.458C75.0676 105.458 74.4378 104.871 74.3858 104.146C74.3338 103.421 74.8785 102.833 75.6039 102.833C76.3293 102.833 76.9585 103.42 77.0105 104.146Z" fill="#FAFAFA"/>
<path d="M81.4748 104.146C81.5268 104.871 80.9821 105.458 80.2567 105.458C79.532 105.458 78.9021 104.871 78.8501 104.146C78.7981 103.421 79.3428 102.833 80.0682 102.833C80.793 102.833 81.4228 103.42 81.4748 104.146Z" fill="#FAFAFA"/>
<path d="M85.9388 104.146C85.9908 104.871 85.4455 105.458 84.7207 105.458C83.996 105.458 83.3661 104.871 83.3135 104.146C83.2615 103.421 83.8068 102.833 84.5316 102.833C85.2563 102.833 85.8862 103.42 85.9388 104.146Z" fill="#FAFAFA"/>
<path d="M216.355 195.375H83.168C82.0221 195.375 81.0256 194.445 80.9431 193.299L75.318 115.187C75.2354 114.041 76.098 113.111 77.2439 113.111H210.431C211.577 113.111 212.573 114.04 212.656 115.187L218.281 193.299C218.363 194.445 217.501 195.375 216.355 195.375Z" fill="white"/>
<path d="M160.244 165.618L158.076 135.511L151.506 131.556H133.434L135.887 165.618H160.244Z" fill="white"/>
<path d="M160.244 165.934H135.887C135.721 165.934 135.584 165.806 135.573 165.641L133.12 131.579C133.113 131.492 133.144 131.406 133.203 131.342C133.263 131.277 133.346 131.242 133.434 131.242H151.507C151.564 131.242 151.62 131.257 151.669 131.287L158.239 135.241C158.327 135.294 158.383 135.386 158.39 135.488L160.558 165.596C160.564 165.683 160.534 165.769 160.474 165.833C160.415 165.897 160.331 165.934 160.244 165.934ZM136.18 165.304H159.905L157.773 135.697L151.419 131.872H133.772L136.18 165.304Z" fill="#3A3A40"/>
<path d="M158.076 135.511L151.506 131.557L153.918 136.796L158.076 135.511Z" fill="#EBEBEB"/>
<path d="M153.918 137.11C153.798 137.11 153.685 137.04 153.632 136.927L151.22 131.688C151.162 131.563 151.193 131.414 151.296 131.322C151.399 131.229 151.55 131.216 151.668 131.287L158.238 135.241C158.345 135.305 158.403 135.426 158.388 135.549C158.373 135.673 158.287 135.776 158.168 135.812L154.011 137.096C153.98 137.105 153.949 137.11 153.918 137.11ZM152.22 132.354L154.089 136.413L157.31 135.417L152.22 132.354Z" fill="#3A3A40"/>
<path d="M143.629 146.903C143.684 147.663 143.112 148.279 142.352 148.279C141.591 148.279 140.932 147.663 140.877 146.903C140.823 146.143 141.394 145.527 142.154 145.527C142.914 145.527 143.575 146.143 143.629 146.903Z" fill="#3A3A40"/>
<path d="M152.558 146.903C152.612 147.663 152.041 148.279 151.28 148.279C150.521 148.279 149.86 147.663 149.805 146.903C149.75 146.143 150.322 145.527 151.082 145.527C151.843 145.528 152.503 146.143 152.558 146.903Z" fill="#3A3A40"/>
<path d="M155.076 155.828C154.913 155.828 154.775 155.701 154.762 155.535C154.603 153.322 151.133 151.523 147.027 151.523C144.307 151.523 141.865 152.331 140.653 153.633C140.115 154.212 139.866 154.836 139.912 155.49C139.925 155.663 139.794 155.814 139.621 155.826C139.446 155.837 139.296 155.708 139.284 155.534C139.225 154.711 139.539 153.905 140.192 153.203C141.519 151.777 144.137 150.892 147.027 150.892C151.531 150.892 155.205 152.912 155.391 155.489C155.403 155.662 155.273 155.813 155.099 155.826C155.091 155.828 155.083 155.828 155.076 155.828Z" fill="#3A3A40"/>
<path d="M138.558 144.116C138.481 144.116 138.405 144.088 138.343 144.032C138.216 143.913 138.208 143.714 138.327 143.587L139.707 142.099C139.825 141.971 140.025 141.965 140.152 142.082C140.28 142.201 140.287 142.4 140.169 142.528L138.789 144.015C138.727 144.082 138.642 144.116 138.558 144.116Z" fill="#3A3A40"/>
<path d="M154.429 144.116C154.353 144.116 154.275 144.088 154.214 144.031L152.62 142.544C152.492 142.426 152.486 142.226 152.604 142.099C152.722 141.971 152.922 141.965 153.049 142.083L154.644 143.57C154.771 143.689 154.778 143.888 154.659 144.016C154.598 144.082 154.514 144.116 154.429 144.116Z" fill="#3A3A40"/>
<path d="M131.467 172.349H132.936L135.055 175.166L134.853 172.349H136.335L136.702 177.441H135.219L133.111 174.645L133.312 177.441H131.833L131.467 172.349Z" fill="#3A3A40"/>
<path d="M137.367 174.898C137.307 174.066 137.492 173.42 137.922 172.956C138.352 172.493 138.98 172.261 139.806 172.261C140.654 172.261 141.323 172.489 141.814 172.944C142.306 173.399 142.581 174.036 142.64 174.855C142.683 175.45 142.618 175.938 142.445 176.319C142.272 176.7 142.004 176.996 141.641 177.208C141.277 177.42 140.813 177.526 140.248 177.526C139.674 177.526 139.192 177.435 138.803 177.252C138.413 177.069 138.088 176.779 137.825 176.384C137.563 175.988 137.41 175.493 137.367 174.898ZM138.941 174.905C138.978 175.419 139.1 175.788 139.307 176.012C139.514 176.237 139.782 176.349 140.111 176.349C140.449 176.349 140.702 176.239 140.872 176.019C141.041 175.799 141.105 175.404 141.064 174.835C141.03 174.356 140.907 174.005 140.698 173.784C140.489 173.563 140.218 173.453 139.888 173.453C139.57 173.453 139.324 173.565 139.148 173.789C138.972 174.015 138.904 174.386 138.941 174.905Z" fill="#3A3A40"/>
<path d="M145.699 172.349H148.036C148.497 172.349 148.873 172.412 149.166 172.536C149.459 172.661 149.707 172.841 149.909 173.075C150.111 173.309 150.265 173.58 150.37 173.891C150.476 174.201 150.541 174.53 150.567 174.877C150.606 175.421 150.574 175.843 150.472 176.143C150.37 176.443 150.216 176.694 150.01 176.897C149.805 177.099 149.579 177.234 149.331 177.301C148.993 177.394 148.684 177.44 148.403 177.44H146.066L145.699 172.349ZM147.355 173.502L147.555 176.284H147.941C148.269 176.284 148.5 176.248 148.634 176.175C148.768 176.102 148.867 175.975 148.933 175.793C148.999 175.611 149.017 175.316 148.988 174.909C148.949 174.369 148.834 174 148.644 173.801C148.453 173.602 148.154 173.503 147.747 173.503H147.355V173.502Z" fill="#3A3A40"/>
<path d="M154.341 176.599H152.555L152.367 177.44H150.761L152.308 172.348H154.024L156.303 177.44H154.656L154.341 176.599ZM153.935 175.499L153.241 173.668L152.817 175.499H153.935Z" fill="#3A3A40"/>
<path d="M155.589 172.349H160.371L160.462 173.606H158.858L159.134 177.441H157.561L157.285 173.606H155.68L155.589 172.349Z" fill="#3A3A40"/>
<path d="M164.037 176.599H162.251L162.063 177.44H160.457L162.004 172.348H163.72L166 177.44H164.352L164.037 176.599ZM163.632 175.499L162.938 173.668L162.514 175.499H163.632Z" fill="#3A3A40"/>
<path d="M229.897 112.502C230.478 112.211 231.17 111.834 231.811 111.483C232.463 111.125 233.111 110.751 233.75 110.362C235.023 109.578 236.307 108.804 237.525 107.943C239.983 106.25 242.286 104.371 244.358 102.318C244.63 102.07 244.861 101.795 245.112 101.532L245.482 101.134L245.668 100.935L245.761 100.836C245.786 100.81 245.78 100.815 245.768 100.831L245.747 100.862C245.655 101.036 245.732 100.983 245.767 100.816C245.811 100.654 245.847 100.391 245.859 100.107C245.901 98.9261 245.668 97.4383 245.385 95.9998C244.807 93.0846 243.93 90.0861 243.065 87.1481L245.59 86.0405C247.172 88.8654 248.49 91.7508 249.563 94.8792C250.074 96.4639 250.544 98.0551 250.681 100.01C250.706 100.508 250.717 101.031 250.627 101.641C250.531 102.242 250.38 102.961 249.832 103.776L249.723 103.926L249.639 104.035L249.539 104.157L249.339 104.4L248.938 104.888C248.667 105.209 248.41 105.548 248.122 105.849C245.88 108.337 243.387 110.536 240.725 112.447C239.401 113.415 238.047 114.334 236.641 115.171C235.941 115.595 235.232 116.002 234.511 116.396C233.781 116.802 233.087 117.155 232.258 117.544L229.897 112.502Z" fill="#FFB573"/>
<path d="M224.116 265.316C224.619 265.316 225.169 265.212 225.553 265.121C225.603 265.109 225.641 265.069 225.651 265.018C225.66 264.967 225.638 264.916 225.595 264.888C225.408 264.765 223.755 263.698 223.121 263.985C223.021 264.03 222.896 264.13 222.865 264.347C222.824 264.636 222.896 264.866 223.079 265.033C223.311 265.244 223.697 265.316 224.116 265.316ZM225.188 264.937C224.241 265.126 223.528 265.094 223.252 264.842C223.135 264.736 223.092 264.585 223.12 264.383C223.135 264.275 223.186 264.239 223.227 264.22C223.561 264.069 224.514 264.529 225.188 264.937Z" fill="#3A3A40"/>
<path d="M225.524 265.125C225.546 265.125 225.569 265.119 225.589 265.107C225.629 265.084 225.653 265.042 225.653 264.995C225.653 264.929 225.646 263.361 225.054 262.837C224.897 262.698 224.714 262.641 224.508 262.665C224.185 262.704 224.098 262.908 224.074 263.025C223.951 263.638 224.941 264.813 225.46 265.107C225.48 265.119 225.502 265.125 225.524 265.125ZM224.598 262.917C224.704 262.917 224.797 262.954 224.883 263.031C225.237 263.343 225.358 264.223 225.388 264.745C224.87 264.332 224.253 263.449 224.327 263.075C224.34 263.014 224.375 262.941 224.539 262.921C224.559 262.919 224.578 262.917 224.598 262.917Z" fill="#3A3A40"/>
<path d="M225.045 96.2437C224.412 99.4742 223.077 106.018 225.337 108.174C225.337 108.174 224.454 111.451 218.451 111.451C211.85 111.451 215.297 108.174 215.297 108.174C218.9 107.314 218.807 104.641 218.179 102.131L225.045 96.2437Z" fill="#FFB573"/>
<path d="M214.035 109.476C212.999 109.616 213.88 106.932 214.301 106.654C215.274 106.011 227.854 105.101 227.772 106.628C227.72 107.285 227.412 108.568 226.862 109.003C226.311 109.439 223.079 108.122 214.035 109.476Z" fill="#263238"/>
<path d="M216.084 108.572C215.261 108.85 215.339 106.146 215.619 105.82C216.268 105.067 226.451 102.451 226.753 103.931C226.87 104.57 226.925 105.847 226.576 106.343C226.227 106.838 223.235 106.018 216.084 108.572Z" fill="#263238"/>
<path d="M212.297 90.4203C212.217 90.4249 212.136 90.393 212.081 90.3261C211.353 89.4356 210.407 89.5266 210.398 89.5279C210.254 89.5428 210.129 89.4408 210.114 89.2991C210.098 89.1574 210.201 89.03 210.343 89.015C210.393 89.0098 211.578 88.8948 212.481 89.9991C212.572 90.1096 212.555 90.2721 212.445 90.3618C212.401 90.3982 212.349 90.4171 212.297 90.4203Z" fill="#263238"/>
<path d="M211.037 93.6006C211.037 93.6006 210.48 95.5551 209.753 96.5431C210.383 97.0248 211.34 96.6822 211.34 96.6822L211.037 93.6006Z" fill="#FF5652"/>
<path d="M211.354 92.8108C211.397 93.2476 211.2 93.6246 210.915 93.6532C210.629 93.6812 210.363 93.3497 210.319 92.9129C210.276 92.4761 210.473 92.0991 210.759 92.0705C211.045 92.0425 211.311 92.374 211.354 92.8108Z" fill="#263238"/>
<path d="M210.888 92.0824L209.808 91.8828C209.808 91.8828 210.428 92.6505 210.888 92.0824Z" fill="#263238"/>
<path d="M231.855 264.995H226.411L226.838 252.387H232.282L231.855 264.995Z" fill="#FFB573"/>
<path d="M225.98 264.366H232.096C232.319 264.366 232.499 264.52 232.531 264.738L233.227 269.577C233.3 270.079 232.868 270.554 232.354 270.545C230.222 270.509 229.194 270.383 226.504 270.383C224.85 270.383 222.432 270.555 220.147 270.555C217.911 270.555 217.74 268.295 218.691 268.091C222.958 267.173 223.632 265.908 225.07 264.7C225.329 264.483 225.654 264.366 225.98 264.366Z" fill="#263238"/>
<g opacity="0.2">
<path d="M232.283 252.391H226.836L226.619 258.89H232.066L232.283 252.391Z" fill="black"/>
</g>
<path d="M210.193 115.729C206.824 114.41 203.611 112.975 200.411 111.339C197.216 109.704 194.071 107.962 191.048 105.636C190.295 105.044 189.551 104.397 188.824 103.641C188.642 103.446 188.461 103.265 188.283 103.041C188.096 102.806 187.955 102.668 187.712 102.306C187.272 101.674 186.932 100.826 186.842 99.9604C186.757 99.0939 186.912 98.2665 187.161 97.6067C187.409 96.9353 187.735 96.3873 188.076 95.9122C188.759 94.9606 189.516 94.2573 190.278 93.6242C191.801 92.3638 193.412 91.4473 195.025 90.5906C195.831 90.1629 196.653 89.7774 197.485 89.4225C198.321 89.0618 199.137 88.7264 200.024 88.4209L201.178 90.9253C198.342 92.7122 195.406 94.6765 193.246 96.8787C192.722 97.4241 192.263 97.9947 191.974 98.4972C191.665 99.0087 191.669 99.3916 191.721 99.3624C191.748 99.3624 191.738 99.3506 191.813 99.426L192.072 99.7036C192.169 99.82 192.306 99.9389 192.429 100.059C192.94 100.535 193.538 101.013 194.184 101.468C195.474 102.387 196.895 103.246 198.366 104.049C199.831 104.863 201.338 105.641 202.873 106.38C205.936 107.847 209.112 109.259 212.228 110.549L210.193 115.729Z" fill="#FFB573"/>
<path d="M202.78 89.1504L203.68 87.1977L199.588 85.7769C199.588 85.7769 198.313 89.6138 199.832 91.3844C201.126 91.1771 202.231 90.3399 202.78 89.1504Z" fill="#FFB573"/>
<path d="M203.68 82.9764L200.409 82.0332L199.588 85.7759L203.68 87.1974V82.9764Z" fill="#FFB573"/>
<path d="M245.927 87.3867L246.404 82.8237L242.187 83.815C242.187 83.815 242.125 88.092 244.356 88.7738L245.927 87.3867Z" fill="#FFB573"/>
<path d="M244.373 79.6299L241.625 80.913L242.187 83.8152L246.404 82.824L244.373 79.6299Z" fill="#FFB573"/>
<path d="M225.901 89.8661C226.1 95.2656 226.299 97.5471 223.859 100.569C220.189 105.114 213.513 104.176 211.705 98.9446C210.078 94.2354 210.027 86.1961 215.071 83.5428C220.04 80.9298 225.703 84.4659 225.901 89.8661Z" fill="#FFB573"/>
<path d="M223.549 100.558C228.849 98.2676 232.336 93.4375 230.864 85.8851C229.456 78.6597 224.578 77.946 222.563 79.4449C220.548 80.9438 215.526 78.7098 212.512 81.2461C207.289 85.6407 212.226 90.3786 214.798 93.1859C216.335 96.3436 218.347 102.806 223.549 100.558Z" fill="#263238"/>
<path d="M221.348 84.5892C223.136 87.1794 226.567 87.9107 229.011 86.2226C231.455 84.5352 231.986 81.0675 230.197 78.4772C228.409 75.887 224.978 75.1557 222.534 76.8438C220.09 78.5312 219.559 81.9989 221.348 84.5892Z" fill="#3A3A40"/>
<path d="M222.724 79.9514C221.959 75.5977 226.079 72.2405 231.587 73.8629C237.096 75.4853 234.182 80.3687 233.052 84.2687C231.923 88.1687 234.887 91.8835 236.126 88.913C237.365 85.9431 235.283 85.026 235.283 85.026C235.283 85.026 241.132 86.5424 235.698 93.136C230.264 99.7303 225.345 92.449 226.675 88.1518C227.75 84.6795 223.447 84.0666 222.724 79.9514Z" fill="#263238"/>
<path d="M217.218 81.5967C214.704 80.285 210.445 79.2242 208.021 83.3017C206.875 85.2296 207.319 87.8445 207.319 87.8445L214.722 88.3372L217.218 81.5967Z" fill="#263238"/>
<path d="M206.448 86.5659C206.445 86.5659 206.441 86.5659 206.438 86.5653C206.348 86.5601 206.28 86.4827 206.285 86.393C206.292 86.2825 206.471 83.6676 208.05 82.027C211.864 78.0633 216.337 81.351 217.617 82.4534C217.685 82.5119 217.693 82.6146 217.634 82.6828C217.575 82.7511 217.473 82.7582 217.404 82.6997C216.179 81.6448 211.901 78.4942 208.284 82.2525C206.789 83.8054 206.611 86.3872 206.609 86.4132C206.605 86.499 206.533 86.5659 206.448 86.5659Z" fill="#263238"/>
<path d="M215.705 92.9717C215.697 94.0234 215.226 95.053 214.629 95.7517C213.731 96.8021 212.701 96.2847 212.465 95.1199C212.253 94.0715 212.463 92.2619 213.599 91.6275C214.717 91.0028 215.714 91.7692 215.705 92.9717Z" fill="#FFB573"/>
<path d="M214.535 142.429C214.535 142.429 214.882 180.223 218.16 201.283C220.808 218.294 225.709 257.631 225.709 257.631H233.133C233.133 257.631 233.859 219.656 232.514 202.831C229.113 160.257 237.89 152.298 230.807 142.429H214.535Z" fill="#263238"/>
<path opacity="0.1" d="M214.535 142.429C214.535 142.429 214.882 180.223 218.16 201.283C220.808 218.294 225.709 257.631 225.709 257.631H233.133C233.133 257.631 233.859 219.656 232.514 202.831C229.113 160.257 237.89 152.298 230.807 142.429H214.535Z" fill="white"/>
<path opacity="0.3" d="M218.437 159.575C221.044 170.982 218.964 188.948 217.54 196.859C216.032 184.847 215.272 169.279 214.895 157.872C216.24 155.688 217.514 155.545 218.437 159.575Z" fill="black"/>
<path d="M224.693 257.778H234.149L234.646 254.461L224.639 254.122L224.693 257.778Z" fill="#3A3A40"/>
<path d="M227.391 110.527C228.281 108.759 233.063 107.646 235.676 107.65L237.633 116.337C237.633 116.337 232.425 124.066 230.26 123.246C227.702 122.279 225.486 114.317 227.391 110.527Z" fill="#3A3A40"/>
<path opacity="0.4" d="M227.391 110.527C228.281 108.759 233.063 107.646 235.676 107.65L237.633 116.337C237.633 116.337 232.425 124.066 230.26 123.246C227.702 122.279 225.486 114.317 227.391 110.527Z" fill="black"/>
<path d="M221.879 255.653C221.903 255.615 221.905 255.566 221.883 255.526C221.858 255.478 221.804 255.451 221.75 255.459C221.477 255.5 219.071 255.882 218.746 256.569C218.683 256.702 218.692 256.843 218.771 256.975C218.904 257.197 219.091 257.322 219.329 257.346C220.117 257.427 221.256 256.333 221.864 255.674C221.869 255.667 221.875 255.661 221.879 255.653ZM218.993 256.652C219.215 256.288 220.459 255.952 221.409 255.777C220.551 256.649 219.796 257.134 219.354 257.089C219.199 257.072 219.081 256.992 218.991 256.842C218.956 256.784 218.952 256.734 218.978 256.679C218.983 256.67 218.987 256.661 218.993 256.652Z" fill="#3A3A40"/>
<path d="M221.879 255.654C221.885 255.646 221.889 255.637 221.891 255.628C221.906 255.585 221.896 255.537 221.867 255.502C221.826 255.455 220.862 254.344 219.974 254.286C219.701 254.268 219.463 254.349 219.265 254.527C218.998 254.766 219.021 254.974 219.088 255.106C219.369 255.663 221.098 255.858 221.796 255.713C221.831 255.705 221.861 255.684 221.879 255.654ZM219.335 254.835C219.355 254.802 219.387 254.763 219.437 254.718C219.584 254.587 219.754 254.53 219.957 254.543C220.54 254.582 221.204 255.186 221.506 255.493C220.735 255.558 219.487 255.324 219.318 254.989C219.308 254.969 219.283 254.92 219.335 254.835Z" fill="#3A3A40"/>
<path d="M227.554 253.347L222.574 255.559L220.355 250.941L217.456 244.894L217.116 244.19L222.09 241.975L222.474 242.767L225.286 248.623L227.554 253.347Z" fill="#FFB573"/>
<path opacity="0.2" d="M225.285 248.623L220.355 250.941L217.456 244.893L222.474 242.767L225.285 248.623Z" fill="black"/>
<path d="M208.695 142.429C208.695 142.429 192.787 181.972 197.099 200.593C200.995 217.421 218.226 249.291 218.226 249.291L224.889 245.947C224.889 245.947 214.237 207.475 213.081 199.117C210.833 182.855 225.285 159.901 225.285 142.429H208.695Z" fill="#263238"/>
<path opacity="0.1" d="M208.695 142.429C208.695 142.429 192.787 181.972 197.099 200.593C200.995 217.421 218.226 249.291 218.226 249.291L224.889 245.947C224.889 245.947 214.237 207.475 213.081 199.117C210.833 182.855 225.285 159.901 225.285 142.429H208.695Z" fill="white"/>
<path d="M221.686 254.867L226.631 251.267C226.811 251.136 227.048 251.155 227.201 251.312L230.612 254.815C230.966 255.178 230.896 255.817 230.477 256.112C228.731 257.337 227.826 257.841 225.652 259.423C224.313 260.397 221.647 262.551 219.8 263.895C217.993 265.21 216.524 263.485 217.173 262.759C220.083 259.507 220.696 257.495 221.148 255.673C221.229 255.345 221.423 255.059 221.686 254.867Z" fill="#263238"/>
<path d="M217.797 250.701L226.397 246.767L225.294 243.263L216.084 247.463L217.797 250.701Z" fill="#3A3A40"/>
<path d="M212.917 110.084C212.203 108.237 205.99 106.212 202.873 105.505L201.503 115.754C201.503 115.754 206.594 123.07 208.829 122.465C211.468 121.75 214.446 114.041 212.917 110.084Z" fill="#3A3A40"/>
<path opacity="0.4" d="M212.917 110.084C212.203 108.237 205.99 106.212 202.873 105.505L201.503 115.754C201.503 115.754 206.594 123.07 208.829 122.465C211.468 121.75 214.446 114.041 212.917 110.084Z" fill="black"/>
<path d="M206.093 109.569C206.093 109.569 203.5 110.482 208.695 142.43C217.469 142.43 226.538 142.43 230.807 142.43C230.436 133.43 230.426 127.881 234.727 109.411C234.727 109.411 230.094 108.403 225.337 108.174C221.616 107.995 218.567 107.876 215.296 108.175C210.984 108.568 206.093 109.569 206.093 109.569Z" fill="#3A3A40"/>
<path opacity="0.4" d="M206.093 109.569C206.093 109.569 203.5 110.482 208.695 142.43C217.469 142.43 226.538 142.43 230.807 142.43C230.436 133.43 230.426 127.881 234.727 109.411C234.727 109.411 230.094 108.403 225.337 108.174C221.616 107.995 218.567 107.876 215.296 108.175C210.984 108.568 206.093 109.569 206.093 109.569Z" fill="black"/>
<path d="M231.139 141.131L232.136 143.11C232.213 143.264 232.031 143.421 231.776 143.421H208.586C208.386 143.421 208.221 143.323 208.209 143.198L208.009 141.218C207.995 141.081 208.168 140.965 208.386 140.965H230.779C230.943 140.965 231.089 141.032 231.139 141.131Z" fill="#3A3A40"/>
<path opacity="0.3" d="M231.139 141.131L232.136 143.11C232.213 143.264 232.031 143.421 231.776 143.421H208.586C208.386 143.421 208.221 143.323 208.209 143.198L208.009 141.218C207.995 141.081 208.168 140.965 208.386 140.965H230.779C230.943 140.965 231.089 141.032 231.139 141.131Z" fill="white"/>
<path d="M228.131 143.635H228.731C228.851 143.635 228.942 143.573 228.933 143.498L228.652 140.927C228.643 140.852 228.539 140.791 228.42 140.791H227.82C227.7 140.791 227.609 140.852 227.618 140.927L227.899 143.498C227.908 143.574 228.012 143.635 228.131 143.635Z" fill="#263238"/>
<path d="M213.595 143.635H214.195C214.315 143.635 214.406 143.573 214.397 143.498L214.116 140.927C214.107 140.852 214.003 140.791 213.884 140.791H213.284C213.164 140.791 213.073 140.852 213.082 140.927L213.363 143.498C213.371 143.574 213.476 143.635 213.595 143.635Z" fill="#263238"/>
</svg>
