<svg width="16" height="16" viewBox="0 0 16 16" fill="none" xmlns="http://www.w3.org/2000/svg">
<path d="M11.334 9.33268C11.7022 9.33268 12.0007 9.03421 12.0007 8.66602C12.0007 8.29783 11.7022 7.99935 11.334 7.99935C10.9658 7.99935 10.6673 8.29783 10.6673 8.66602C10.6673 9.03421 10.9658 9.33268 11.334 9.33268Z" fill="#92939E"/>
<path d="M11.334 11.9993C11.7022 11.9993 12.0007 11.7009 12.0007 11.3327C12.0007 10.9645 11.7022 10.666 11.334 10.666C10.9658 10.666 10.6673 10.9645 10.6673 11.3327C10.6673 11.7009 10.9658 11.9993 11.334 11.9993Z" fill="#92939E"/>
<path d="M8.66732 8.66602C8.66732 9.03421 8.36884 9.33268 8.00065 9.33268C7.63246 9.33268 7.33398 9.03421 7.33398 8.66602C7.33398 8.29783 7.63246 7.99935 8.00065 7.99935C8.36884 7.99935 8.66732 8.29783 8.66732 8.66602Z" fill="#92939E"/>
<path d="M8.66732 11.3327C8.66732 11.7009 8.36884 11.9993 8.00065 11.9993C7.63246 11.9993 7.33398 11.7009 7.33398 11.3327C7.33398 10.9645 7.63246 10.666 8.00065 10.666C8.36884 10.666 8.66732 10.9645 8.66732 11.3327Z" fill="#92939E"/>
<path d="M4.66732 9.33268C5.03551 9.33268 5.33398 9.03421 5.33398 8.66602C5.33398 8.29783 5.03551 7.99935 4.66732 7.99935C4.29913 7.99935 4.00065 8.29783 4.00065 8.66602C4.00065 9.03421 4.29913 9.33268 4.66732 9.33268Z" fill="#92939E"/>
<path d="M4.66732 11.9993C5.03551 11.9993 5.33398 11.7009 5.33398 11.3327C5.33398 10.9645 5.03551 10.666 4.66732 10.666C4.29913 10.666 4.00065 10.9645 4.00065 11.3327C4.00065 11.7009 4.29913 11.9993 4.66732 11.9993Z" fill="#92939E"/>
<path fill-rule="evenodd" clip-rule="evenodd" d="M4.66732 1.16602C4.94346 1.16602 5.16732 1.38987 5.16732 1.66602V2.1745C5.60865 2.16601 6.09487 2.16601 6.62962 2.16602H9.37159C9.90636 2.16601 10.3927 2.16601 10.834 2.1745V1.66602C10.834 1.38987 11.0578 1.16602 11.334 1.16602C11.6101 1.16602 11.834 1.38987 11.834 1.66602V2.21741C12.0073 2.23062 12.1714 2.24723 12.3267 2.26811C13.1083 2.37319 13.7409 2.5946 14.2398 3.09351C14.7387 3.59242 14.9601 4.22505 15.0652 5.00667C15.1673 5.76614 15.1673 6.73655 15.1673 7.96171V9.37029C15.1673 10.5954 15.1673 11.5659 15.0652 12.3254C14.9601 13.107 14.7387 13.7396 14.2398 14.2385C13.7409 14.7374 13.1083 14.9588 12.3267 15.0639C11.5672 15.166 10.5968 15.166 9.37162 15.166H6.62971C5.40455 15.166 4.43411 15.166 3.67464 15.0639C2.89302 14.9588 2.26039 14.7374 1.76148 14.2385C1.26257 13.7396 1.04116 13.107 0.936074 12.3254C0.833966 11.5659 0.833974 10.5955 0.833985 9.37029V7.96174C0.833974 6.73656 0.833966 5.76614 0.936074 5.00667C1.04116 4.22505 1.26257 3.59242 1.76148 3.09351C2.26039 2.5946 2.89302 2.37319 3.67464 2.26811C3.82992 2.24723 3.99402 2.23062 4.16732 2.21741V1.66602C4.16732 1.38987 4.39118 1.16602 4.66732 1.16602ZM3.80788 3.25919C3.13716 3.34937 2.75073 3.51848 2.46859 3.80062C2.18645 4.08276 2.01733 4.46919 1.92716 5.13991C1.91189 5.25351 1.89912 5.37309 1.88844 5.49935H14.1129C14.1022 5.37309 14.0894 5.25351 14.0741 5.13991C13.984 4.46919 13.8149 4.08276 13.5327 3.80062C13.2506 3.51848 12.8641 3.34936 12.1934 3.25919C11.5083 3.16708 10.6052 3.16602 9.33398 3.16602H6.66732C5.3961 3.16602 4.49299 3.16708 3.80788 3.25919ZM1.83398 7.99935C1.83398 7.43001 1.8342 6.9345 1.84271 6.49935H14.1586C14.1671 6.9345 14.1673 7.43001 14.1673 7.99935V9.33268C14.1673 10.6039 14.1663 11.507 14.0741 12.1921C13.984 12.8628 13.8149 13.2493 13.5327 13.5314C13.2506 13.8136 12.8641 13.9827 12.1934 14.0728C11.5083 14.165 10.6052 14.166 9.33398 14.166H6.66732C5.3961 14.166 4.49299 14.165 3.80788 14.0728C3.13716 13.9827 2.75073 13.8136 2.46859 13.5314C2.18645 13.2493 2.01733 12.8628 1.92716 12.1921C1.83505 11.507 1.83398 10.6039 1.83398 9.33268V7.99935Z" fill="#92939E"/>
</svg>
