<svg width="20" height="20" viewBox="0 0 20 20" fill="none" xmlns="http://www.w3.org/2000/svg">
<path d="M4.61763 16.2667C4.1093 16.2667 3.6343 16.0917 3.29263 15.7667C2.8593 15.3584 2.65097 14.7417 2.72597 14.075L3.0343 11.375C3.09263 10.8667 3.40097 10.1917 3.7593 9.82502L10.601 2.58335C12.3093 0.77502 14.0926 0.725021 15.901 2.43335C17.7093 4.14169 17.7593 5.92502 16.051 7.73335L9.2093 14.975C8.8593 15.35 8.2093 15.7 7.70096 15.7834L5.01763 16.2417C4.87597 16.25 4.75097 16.2667 4.61763 16.2667ZM13.276 2.42502C12.6343 2.42502 12.076 2.82502 11.5093 3.42502L4.66763 10.675C4.50097 10.85 4.3093 11.2667 4.27597 11.5084L3.96763 14.2084C3.9343 14.4834 4.00097 14.7084 4.15097 14.85C4.30097 14.9917 4.52597 15.0417 4.80097 15L7.4843 14.5417C7.72597 14.5 8.12597 14.2834 8.29263 14.1084L15.1343 6.86669C16.1676 5.76669 16.5426 4.75002 15.0343 3.33335C14.3676 2.69169 13.7926 2.42502 13.276 2.42502Z" fill="#B9BAC0"/>
<path d="M14.4536 9.12498C14.437 9.12498 14.412 9.12498 14.3953 9.12498C11.7953 8.86664 9.70362 6.89164 9.30362 4.30831C9.25362 3.96664 9.48695 3.64998 9.82862 3.59164C10.1703 3.54164 10.487 3.77498 10.5453 4.11664C10.862 6.13331 12.4953 7.68331 14.5286 7.88331C14.8703 7.91664 15.1203 8.22498 15.087 8.56664C15.0453 8.88331 14.7703 9.12498 14.4536 9.12498Z" fill="#B9BAC0"/>
<path d="M17.5 18.9583H2.5C2.15833 18.9583 1.875 18.675 1.875 18.3333C1.875 17.9916 2.15833 17.7083 2.5 17.7083H17.5C17.8417 17.7083 18.125 17.9916 18.125 18.3333C18.125 18.675 17.8417 18.9583 17.5 18.9583Z" fill="#B9BAC0"/>
</svg>
