<svg width="20" height="20" viewBox="0 0 20 20" fill="none" xmlns="http://www.w3.org/2000/svg">
<path d="M5.1467 18.9583C5.06336 18.9583 4.9717 18.95 4.8967 18.9416L3.08836 18.6916C2.2217 18.575 1.43836 17.8 1.30503 16.9166L1.05503 15.0916C0.971696 14.5083 1.2217 13.75 1.63836 13.325L5.2967 9.66664C4.70503 7.29998 5.38836 4.79998 7.13003 3.07498C9.83003 0.38331 14.2217 0.374977 16.93 3.07498C18.2384 4.38331 18.955 6.12498 18.955 7.97498C18.955 9.82498 18.2384 11.5666 16.93 12.875C15.18 14.6083 12.6884 15.2916 10.3384 14.6916L6.6717 18.35C6.3217 18.7166 5.6967 18.9583 5.1467 18.9583ZM12.0217 2.29998C10.5634 2.29998 9.11336 2.84998 8.00503 3.95831C6.50503 5.44998 5.96336 7.63331 6.58836 9.66664C6.65503 9.89164 6.5967 10.125 6.43003 10.2916L2.51336 14.2083C2.3717 14.35 2.25503 14.7166 2.28003 14.9083L2.53003 16.7333C2.58003 17.05 2.9217 17.4083 3.23836 17.45L5.05503 17.7C5.25503 17.7333 5.6217 17.6166 5.76336 17.475L9.6967 13.55C9.86336 13.3833 10.105 13.3333 10.3217 13.4C12.33 14.0333 14.5217 13.4916 16.0217 11.9916C17.0884 10.925 17.68 9.49164 17.68 7.97498C17.68 6.44998 17.0884 5.02498 16.0217 3.95831C14.9384 2.85831 13.48 2.29998 12.0217 2.29998Z" fill="#B9BAC0"/>
<path d="M7.65677 17.1167C7.49844 17.1167 7.3401 17.0583 7.2151 16.9333L5.29844 15.0167C5.05677 14.775 5.05677 14.375 5.29844 14.1333C5.5401 13.8917 5.9401 13.8917 6.18177 14.1333L8.09844 16.05C8.3401 16.2917 8.3401 16.6917 8.09844 16.9333C7.97344 17.0583 7.8151 17.1167 7.65677 17.1167Z" fill="#B9BAC0"/>
<path d="M12.0859 9.79169C11.0526 9.79169 10.2109 8.95002 10.2109 7.91669C10.2109 6.88335 11.0526 6.04169 12.0859 6.04169C13.1193 6.04169 13.9609 6.88335 13.9609 7.91669C13.9609 8.95002 13.1193 9.79169 12.0859 9.79169ZM12.0859 7.29169C11.7443 7.29169 11.4609 7.57502 11.4609 7.91669C11.4609 8.25835 11.7443 8.54169 12.0859 8.54169C12.4276 8.54169 12.7109 8.25835 12.7109 7.91669C12.7109 7.57502 12.4276 7.29169 12.0859 7.29169Z" fill="#B9BAC0"/>
</svg>
