<svg width="20" height="20" viewBox="0 0 20 20" fill="none" xmlns="http://www.w3.org/2000/svg">
<path d="M17.503 5.60833C17.4863 5.60833 17.4613 5.60833 17.4363 5.60833C13.028 5.16667 8.62798 5 4.26965 5.44167L2.56965 5.60833C2.21965 5.64167 1.91131 5.39167 1.87798 5.04167C1.84465 4.69167 2.09465 4.39167 2.43631 4.35833L4.13631 4.19167C8.56965 3.74167 13.0613 3.91667 17.5613 4.35833C17.903 4.39167 18.153 4.7 18.1196 5.04167C18.0946 5.36667 17.8196 5.60833 17.503 5.60833Z" fill="#B9BAC0"/>
<path d="M7.08656 4.76669C7.05322 4.76669 7.01989 4.76669 6.97822 4.75835C6.64489 4.70002 6.41156 4.37502 6.46989 4.04169L6.65322 2.95002C6.78656 2.15002 6.96989 1.04169 8.91156 1.04169H11.0949C13.0449 1.04169 13.2282 2.19169 13.3532 2.95835L13.5366 4.04169C13.5949 4.38335 13.3616 4.70835 13.0282 4.75835C12.6866 4.81669 12.3616 4.58335 12.3116 4.25002L12.1282 3.16669C12.0116 2.44169 11.9866 2.30002 11.1032 2.30002H8.91989C8.03656 2.30002 8.01989 2.41669 7.89489 3.15835L7.70322 4.24169C7.65322 4.55002 7.38656 4.76669 7.08656 4.76669Z" fill="#B9BAC0"/>
<path d="M12.674 18.9583H7.32402C4.41569 18.9583 4.29902 17.35 4.20735 16.05L3.66569 7.65833C3.64069 7.31667 3.90735 7.01667 4.24902 6.99167C4.59902 6.975 4.89069 7.23334 4.91569 7.575L5.45735 15.9667C5.54902 17.2333 5.58235 17.7083 7.32402 17.7083H12.674C14.424 17.7083 14.4574 17.2333 14.5407 15.9667L15.0824 7.575C15.1074 7.23334 15.4074 6.975 15.749 6.99167C16.0907 7.01667 16.3574 7.30833 16.3324 7.65833L15.7907 16.05C15.699 17.35 15.5824 18.9583 12.674 18.9583Z" fill="#B9BAC0"/>
<path d="M11.3844 14.375H8.60938C8.26771 14.375 7.98438 14.0917 7.98438 13.75C7.98438 13.4083 8.26771 13.125 8.60938 13.125H11.3844C11.726 13.125 12.0094 13.4083 12.0094 13.75C12.0094 14.0917 11.726 14.375 11.3844 14.375Z" fill="#B9BAC0"/>
<path d="M12.0807 11.0417H7.91406C7.5724 11.0417 7.28906 10.7584 7.28906 10.4167C7.28906 10.075 7.5724 9.79169 7.91406 9.79169H12.0807C12.4224 9.79169 12.7057 10.075 12.7057 10.4167C12.7057 10.7584 12.4224 11.0417 12.0807 11.0417Z" fill="#B9BAC0"/>
</svg>
